<?xml version="1.0" standalone="no"?>
<!DOCTYPE svg PUBLIC "-//W3C//DTD SVG 20010904//EN"
 "http://www.w3.org/TR/2001/REC-SVG-20010904/DTD/svg10.dtd">
<svg version="1.0" xmlns="http://www.w3.org/2000/svg"
 width="512.000000pt" height="512.000000pt" viewBox="0 0 512.000000 512.000000"
 preserveAspectRatio="xMidYMid meet">

<g transform="translate(0.000000,512.000000) scale(0.100000,-0.100000)"
fill="#000000" stroke="none">
<path d="M1404 5106 c-216 -50 -364 -240 -364 -470 0 -92 15 -150 62 -239 33
-63 167 -200 1487 -1529 l316 -318 -892 -892 c-695 -696 -897 -904 -916 -943
-100 -201 -66 -440 83 -579 125 -117 318 -161 481 -112 119 36 138 53 559 470
1618 1604 1771 1758 1799 1815 81 159 82 319 4 476 -20 39 -260 286 -1121
1147 -765 766 -1110 1105 -1143 1123 -104 56 -243 76 -355 51z m192 -365 c21
-16 514 -505 1096 -1087 841 -843 1057 -1066 1063 -1091 5 -26 0 -42 -28 -85
-45 -69 -2092 -2113 -2130 -2128 -94 -34 -190 16 -198 105 -7 87 -61 27 950
1040 522 522 956 964 965 982 20 39 21 93 3 136 -9 20 -379 395 -956 967 -549
545 -951 950 -962 972 -38 73 -15 156 53 198 48 29 97 26 144 -9z"/>
</g>
</svg>
